# xmcd
#
# Track frame offsets: 
#        150
#        23694
#        40851
#        56382
#        74255
#        101667
#        118397
#        141372
#        161038
#        179984
#        203453
#
# Disc length: 3074 seconds
#
# Revision: 0
# Processed by: cddbd v1.5.1PL0 Copyright (c) Steve Scherf et al.
# Submitted via: ExactAudioCopy v0.95a4
#
DISCID=a00c000b
DTITLE=Nevada Backwards - Adaven
DYEAR=2004
DGENRE=Country
TTITLE0=South Virginia
TTITLE1=Get Outta Town
TTITLE2=Lay It Down
TTITLE3=Materialistic Free
TTITLE4=Powertools
TTITLE5=Shit Creek
TTITLE6=Bombfire
TTITLE7=Tijuana
TTITLE8=Trainwreck
TTITLE9=Washington
TTITLE10=Weighted
EXTD=
EXTT0=
EXTT1=
EXTT2=
EXTT3=
EXTT4=
EXTT5=
EXTT6=
EXTT7=
EXTT8=
EXTT9=
EXTT10=
PLAYORDER=
